<svg width="290" height="47" viewBox="0 0 290 47" fill="none" xmlns="http://www.w3.org/2000/svg">
<title>CoBank logo</title>
<path d="M78.7 7.49993C83.1 7.49993 87.4 8.99993 89.5 10.2999L90.6 4.59993C88 3.09993 83.9 1.79993 78 1.79993C67.3 1.79993 54.9 9.29993 54.9 24.0999C54.9 38.7999 67.2 46.3999 78 46.3999C83.5 46.3999 88 45.0999 90.7 43.6999L89.4 38.6999C89.4 38.6999 88.9 38.9999 88.8 38.9999C86.2 40.0999 82.8 40.7999 78.8 40.7999C70.2 40.7999 61.5 35.2999 61.5 24.1999C61.4 12.8999 70.3 7.49993 78.7 7.49993Z" fill="#004A77"/>
<path d="M112 8C102.2 8 92.4 15.3 92.4 27.2C92.4 39.2 102.1 46.4 112 46.4C121.8 46.4 131.6 39.2 131.6 27.2C131.6 15.3 121.9 8 112 8ZM112 40.8C105.5 40.8 98.8 35.8 98.8 27.1C98.8 18.4 105.5 13.5 112 13.5C118.4 13.5 125.2 18.4 125.2 27.1C125.2 35.9 118.4 40.8 112 40.8Z" fill="#004A77"/>
<path d="M242 23C242 26.1 242 29.8 242.1 33.1L242 33.2C239.4 30 235.5 25.7 233 22.9L214.6 2.69998H210.1V45.6H216.6V24.1C216.6 20.9 216.6 17.2 216.5 13.3L216.6 13.2C219.6 16.7 223.3 21 226.5 24.5C226.5 24.5 234.6 33.8 242.6 42.2C244.4 44.1 246.8 45.6 248.5 45.6V2.69998H242V23ZM157.1 21.4C159.6 20.3 161.1 17 161.1 13.9C161.1 6.39997 154.8 2.69998 149.1 2.69998H137.1V45.6H151C157.7 45.6 165.1 41.4 165.1 32.6C165.1 27 161.1 22.6 157.1 21.4ZM143.5 8.19998H147.9C151.4 8.19998 154.4 9.89997 154.4 13.9C154.4 17.9 151.4 19.5 147.9 19.5H143.5V8.19998ZM149.7 40.1H143.6V25H149.7C154.2 25 158.4 27.4 158.4 32.5C158.4 37.8 154.2 40.1 149.7 40.1ZM270.8 23.9L288.6 2.69998C286.4 2.49998 281.5 2.39998 278 6.29998C273.8 11 264.1 23 264.1 23V2.69998H257.6V45.6H257.9H264.1V41C264.1 40.8 264.1 40.6 264.1 40.4V25.5C264.1 25.5 273.8 37.1 277.7 41.6C280.7 45.1 284.3 46.2 288.4 46.2H289.5L270.8 23.9ZM184.7 2.09998L166.4 45.6H166.8C169.7 45.6 172.9 44.9 174.1 42.4C175.1 40.5 177.4 34.5 177.4 34.5H194.1C194.1 34.5 196.2 39.9 197.1 41.6C198.2 43.6 199.8 45.6 205.2 45.6H205.3L187 2.09998H184.7ZM191.9 29.3H179.7C179.7 29.3 185.8 13.5 185.8 13.6H185.9C185.8 13.6 191.9 29.3 191.9 29.3Z" fill="#004A77"/>
<path d="M0.5 0.699951V33.5999C0.5 33.5999 1.1 46.2 13.4 46.2H39.2L10.5 10.7L0.5 0.699951Z" fill="#387C2B"/>
<path d="M0.5 0.699951H33.4C33.4 0.699951 46 1.29995 46 13.6C46 25.9 46 39.4 46 39.4L10.5 10.7L0.5 0.699951Z" fill="#66B360"/>
</svg>
